<svg id="visual" viewBox="0 0 960 300" width="960" height="300" xmlns="http://www.w3.org/2000/svg" xmlns:xlink="http://www.w3.org/1999/xlink" version="1.1"><path d="M0 185L16 185C32 185 64 185 96 187.8C128 190.7 160 196.3 192 203.3C224 210.3 256 218.7 288 219.3C320 220 352 213 384 215.8C416 218.7 448 231.3 480 223.3C512 215.3 544 186.7 576 186.3C608 186 640 214 672 225.2C704 236.3 736 230.7 768 224.2C800 217.7 832 210.3 864 195.7C896 181 928 159 944 148L960 137L960 0L944 0C928 0 896 0 864 0C832 0 800 0 768 0C736 0 704 0 672 0C640 0 608 0 576 0C544 0 512 0 480 0C448 0 416 0 384 0C352 0 320 0 288 0C256 0 224 0 192 0C160 0 128 0 96 0C64 0 32 0 16 0L0 0Z" fill="#253447"></path><path d="M0 128L16 122.7C32 117.3 64 106.7 96 110.2C128 113.7 160 131.3 192 151C224 170.7 256 192.3 288 182.3C320 172.3 352 130.7 384 110.3C416 90 448 91 480 98.8C512 106.7 544 121.3 576 122.5C608 123.7 640 111.3 672 104.7C704 98 736 97 768 109.7C800 122.3 832 148.7 864 148.2C896 147.7 928 120.3 944 106.7L960 93L960 0L944 0C928 0 896 0 864 0C832 0 800 0 768 0C736 0 704 0 672 0C640 0 608 0 576 0C544 0 512 0 480 0C448 0 416 0 384 0C352 0 320 0 288 0C256 0 224 0 192 0C160 0 128 0 96 0C64 0 32 0 16 0L0 0Z" fill="#38495e"></path><path d="M0 159L16 143C32 127 64 95 96 86C128 77 160 91 192 98.7C224 106.3 256 107.7 288 113.8C320 120 352 131 384 135.2C416 139.3 448 136.7 480 135.8C512 135 544 136 576 130.2C608 124.3 640 111.7 672 110.8C704 110 736 121 768 115.7C800 110.3 832 88.7 864 91.5C896 94.3 928 121.7 944 135.3L960 149L960 0L944 0C928 0 896 0 864 0C832 0 800 0 768 0C736 0 704 0 672 0C640 0 608 0 576 0C544 0 512 0 480 0C448 0 416 0 384 0C352 0 320 0 288 0C256 0 224 0 192 0C160 0 128 0 96 0C64 0 32 0 16 0L0 0Z" fill="#4c5f76"></path><path d="M0 62L16 61.2C32 60.3 64 58.7 96 55.7C128 52.7 160 48.3 192 52.2C224 56 256 68 288 69.8C320 71.7 352 63.3 384 67.8C416 72.3 448 89.7 480 90.8C512 92 544 77 576 75.7C608 74.3 640 86.7 672 88.5C704 90.3 736 81.7 768 86C800 90.3 832 107.7 864 108.7C896 109.7 928 94.3 944 86.7L960 79L960 0L944 0C928 0 896 0 864 0C832 0 800 0 768 0C736 0 704 0 672 0C640 0 608 0 576 0C544 0 512 0 480 0C448 0 416 0 384 0C352 0 320 0 288 0C256 0 224 0 192 0C160 0 128 0 96 0C64 0 32 0 16 0L0 0Z" fill="#61768f"></path><path d="M0 16L16 18.5C32 21 64 26 96 30.2C128 34.3 160 37.7 192 41.5C224 45.3 256 49.7 288 55.3C320 61 352 68 384 67.8C416 67.7 448 60.3 480 50.5C512 40.7 544 28.3 576 23.7C608 19 640 22 672 31.2C704 40.3 736 55.7 768 64.7C800 73.7 832 76.3 864 67.8C896 59.3 928 39.7 944 29.8L960 20L960 0L944 0C928 0 896 0 864 0C832 0 800 0 768 0C736 0 704 0 672 0C640 0 608 0 576 0C544 0 512 0 480 0C448 0 416 0 384 0C352 0 320 0 288 0C256 0 224 0 192 0C160 0 128 0 96 0C64 0 32 0 16 0L0 0Z" fill="#778da9"></path></svg>